<svg xmlns="http://www.w3.org/2000/svg" xmlns:xlink="http://www.w3.org/1999/xlink" width="2024" height="2023.9999107" viewBox="0 0 1518 1517.999933">
  <defs>
    <symbol id="a" overflow="visible">
      <path d="M65.09375 0H33.078125v-92.328125h-28.9375V-118.5H93.9375v26.171875H65.09375Zm0 0" style="stroke:none"/>
    </symbol>
    <symbol id="b" overflow="visible">
      <path d="M-26.40625-116.234375 12.6875-129.65625c15.226563-5.238281 27.304688-6.863281 36.234375-4.875 8.933594 1.980469 15.050781 7.746094 18.34375 17.296875 2.152344 6.292969 2.386719 12.214844.703125 17.765625-1.6875 5.554687-4.949219 9.871094-9.78125 12.953125l.265625.765625c7.589844-.539063 13.6875.800781 18.28125 4.015625 4.589844 3.21875 8.0625 8.257812 10.40625 15.109375 3.496094 10.167969 2.429688 19.492187-3.203125 27.96875-5.625 8.46875-15.035156 14.972656-28.21875 19.5L12.109375-4.171875Zm45.0625 32.59375 9.125-3.125c4.339844-1.488281 7.394531-3.535156 9.15625-6.140625 1.757813-2.601563 2.027344-5.671875.8125-9.203125-2.15625-6.277344-7.988281-7.789063-17.484375-4.53125L11.75-103.71875ZM26.265625-61.5l8.09375 23.546875 10.65625-3.65625c9.445313-3.246094 12.800781-8.859375 10.0625-16.828125-1.28125-3.738281-3.535156-6.171875-6.75-7.296875-3.210937-1.121094-7.222656-.855469-12.03125.796875Zm0 0" style="stroke:none"/>
    </symbol>
  </defs>
  <path d="M633.890625 216.105469c-.617187.015625-1.230469.082031-1.828125.164062-.617187.082032-1.214844.199219-1.8125.367188-.582031.148437-1.164062.332031-1.746094.5625-.566406.21875-1.128906.46875-1.679687.75-.546875.28125-1.0625.582031-1.578125.929687-.515625.332032-.996094.699219-1.480469 1.097657-.464844.398437-.914062.816406-1.328125 1.261718-.433594.433594-.832031.898438-1.195312 1.398438-.382813.480469-.714844.980469-1.03125 1.511719-.316407.53125-.617188 1.0625-.867188 1.628906-.265625.550781-.480469 1.128906-.679687 1.710937-.183594.582032-.347657 1.164063-.480469 1.78125-.117188.597657-.21875 1.195313-.285156 1.8125-.046875.613282-.082032 1.210938-.066407 1.828125 0 .613282.035157 1.230469.117188 1.84375.082031.597657.183594 1.214844.332031 1.796875l10.191406 45.941407C347.8125 353.78125 172.449219 636.023438 235.578125 920.6875l32.464844-7.210937c-2.792969-12.585938 2.640625-30.285157 14.976562-45.910157 12.316407-15.625 30.816407-28.191406 47.871094-31.964843 17.070313-3.789063 39.175781-.214844 56.945313 8.726562 17.785156 8.941406 30.203125 22.6875 32.996093 35.253906l32.460938-7.214843c-2.777344-12.449219 2.578125-29.667969 16.65625-45.707032 14.078125-16.023437 36.085937-29.9375 61.617187-35.605468 25.53125-5.667969 51.359375-2.34375 70.890625 6.234375 19.546875 8.574218 31.699219 21.90625 34.457032 34.339843l32.464843-7.164062C666.5 811.5 671.324219 794.578125 684.667969 778.871094c10.824219-12.734375 27.09375-23.96875 46.910156-30.96875 35.453125 164.324219 70.957031 328.648437 106.410156 492.972656H476.28125c-.546875 0-1.097656.015625-1.644531.066406-.550781.050782-1.097656.117188-1.648438.21875-.53125.097657-1.0625.230469-1.59375.378907-.53125.152343-1.046875.335937-1.546875.535156-.515625.214844-1.011718.445312-1.496093.695312-.496094.25-.964844.53125-1.429688.832032-.449219.300781-.894531.617187-1.328125.964843-.433594.347657-.832031.714844-1.230469 1.097657-.382812.382812-.765625.796875-1.113281 1.210937-.347656.433594-.683594.867188-.980469 1.3125-.316406.46875-.597656.933594-.847656 1.414063-.265625.484375-.5.980468-.714844 1.480468-.214843.515625-.398437 1.03125-.566406 1.5625-.148437.515625-.296875 1.046875-.398437 1.59375-.117188.535157-.183594 1.082032-.25 1.613282-.050782.550781-.082032 1.097656-.082032 1.644531 0 .550781.03125 1.097656.082032 1.648437.066406.546875.132812 1.097657.25 1.628907.101562.546875.25 1.078125.398437 1.59375.167969.53125.351563 1.046875.566406 1.546875.214844.515625.449219 1.011718.714844 1.496093.25.480469.53125.945313.847656 1.394532.296875.464843.632813.898437.980469 1.332031.347656.414062.730469.8125 1.113281 1.195312.398438.398438.796875.765625 1.230469 1.097657.433594.347656.878906.679687 1.328125.980468.464844.300782.933594.582032 1.429688.832032.484375.25.980468.480468 1.496093.679687.5.21875 1.015625.382813 1.546875.550781.53125.148438 1.0625.28125 1.59375.382813.550782.097656 1.097657.164062 1.648438.214844.546875.050781 1.097656.066406 1.644531.050781h377.617188c1.578125.480469 3.207031.730469 4.851562.730469 1.664063 0 3.273438-.25 4.855469-.730469h327.417969c.546875.015625 1.09375 0 1.644531-.050781.53125-.050782 1.078125-.117188 1.628906-.214844.53125-.101563 1.0625-.234375 1.59375-.382813.535156-.167968 1.046875-.332031 1.5625-.550781.5-.199219 1-.429687 1.496094-.679687.484375-.25.949219-.53125 1.414062-.832032.464844-.300781.898438-.632812 1.328125-.980468.433594-.332032.832032-.699219 1.230469-1.097657.382813-.382812.765625-.78125 1.113281-1.195312.351563-.433594.683594-.867188.980469-1.332031.316406-.449219.601563-.914063.867188-1.394532.25-.484375.496093-.980468.695312-1.496093.21875-.5.402344-1.015625.566406-1.546875.167969-.515625.300782-1.046875.398438-1.59375.117187-.53125.199219-1.082032.25-1.628907.050781-.550781.082031-1.097656.082031-1.648437 0-.546875-.03125-1.09375-.082031-1.644531-.050781-.53125-.132813-1.078125-.25-1.613282-.097656-.546875-.230469-1.078125-.398438-1.59375-.164062-.53125-.347656-1.046875-.566406-1.5625-.199219-.5-.445312-.996093-.695312-1.480468-.265625-.480469-.550782-.945313-.867188-1.414063-.296875-.445312-.628906-.878906-.980469-1.3125-.347656-.414062-.730468-.828125-1.113281-1.210937-.398437-.382813-.796875-.75-1.230469-1.097657-.429687-.347656-.863281-.664062-1.328125-.964843-.464843-.300782-.929687-.582032-1.414062-.832032-.496094-.25-.996094-.480468-1.496094-.695312-.515625-.199219-1.027344-.382813-1.5625-.535156-.53125-.148438-1.0625-.28125-1.59375-.378907-.550781-.101562-1.097656-.167968-1.628906-.21875-.550781-.050781-1.097656-.066406-1.644531-.066406H871.980469c-35.953125-166.648437-71.953125-333.300781-107.90625-499.953125 21.289062-1.8125 40.570312 1.464844 55.515625 8.128906C838.722656 757.5625 850.125 770.777344 853 783.707031l32.460938-7.195312c-2.773438-12.46875 2.609375-29.6875 16.6875-45.710938 14.082031-16.023437 36.089843-29.953125 61.617187-35.621093 25.53125-5.667969 51.363281-2.359375 70.894531 6.199218 19.546875 8.578125 31.664063 21.941407 34.421875 34.390625l32.464844-7.179687c-2.792969-12.582031 2.660156-30.285156 14.992188-45.910156 12.332031-15.625 30.816406-28.222657 47.886718-31.996094 17.070313-3.789063 39.164063-.183594 56.949219 8.757812 17.765625 8.945313 30.183594 22.65625 32.976563 35.222657v.035156l32.429687-7.214844c-56.316406-253.816406-283.652344-425.871094-533.945312-421.8125-30.382813.496094-61.136719 3.753906-91.9375 9.621094l-10.152344-45.941406c-.199219-.949219-.484375-1.878907-.847656-2.792969-.351563-.898438-.800782-1.761719-1.296875-2.59375-.515625-.828125-1.097657-1.59375-1.746094-2.324219-.648438-.734375-1.363281-1.398437-2.128906-1.996094-.765625-.597656-1.5625-1.128906-2.425782-1.578125-.863281-.464843-1.746093-.847656-2.675781-1.148437-.929687-.296875-1.863281-.515625-2.828125-.664063-.960937-.132812-1.941406-.183593-2.90625-.148437Zm119.558594 82.777344c212.164062-3.527344 404.394531 128.652343 479.09375 329.625-23.253906-10.871094-50.046875-15.90625-75.328125-10.304688-26.582031 5.902344-50.117188 22.757813-66.773438 43.867188-6.53125 8.277343-10.9375 17.832031-14.976562 27.40625-8.226563-7.097657-16.96875-13.910157-27.457031-18.515625-26.347657-11.550782-58.792969-15.492188-91.453125-8.242188-32.664063 7.246094-60.421875 24.515625-79.402344 46.140625-7.613281 8.660156-12.667969 18.582031-17.136719 28.554688-8.03125-7.144532-16.472656-14.078125-26.929687-18.730469-24.914063-11.085938-55.933594-14.84375-88.910157-8.628906h-.613281c-2.0625.066406-4.039062.5-5.953125 1.296875-32.945312 7.53125-60.105469 24.585937-78.304687 46.011718-7.246094 8.527344-11.816407 18.265625-15.972657 28.039063-8.246093-7.113281-16.972656-13.945313-27.492187-18.566406-26.347656-11.566407-58.808594-15.457032-91.488281-8.210938-32.660157 7.246094-60.386719 24.484375-79.371094 46.09375-7.5625 8.609375-12.582031 18.484375-17.050781 28.40625-7.679688-6.964844-15.742188-13.761719-25.152344-18.5-24.035156-12.101562-52.507813-17.402344-79.085938-11.503906-25.265625 5.621094-47.386718 21.492187-63.859375 41.140625-16.589843-204.949219 92.132813-398.128906 271.535157-489.964844l-4.125 2.894531-1.195313 1.179688-4.738281 14.113281 8.460937 12.25 14.878907.546875 4.835937-3.308594 1.164063-1.179687 4.734375-14.113281-8.425782-12.28125-14.675781-.550782c14.308594-7.277343 29.054688-13.945312 44.246094-19.894531l2.210937 4.320313 14.695313 2.460937 5.203125-2.660156 1.328125-1.011719 6.53125-13.398437-.230469-.433594c9.355469-3.007813 18.914063-5.648438 28.570313-8.144531l-.199219 1.015625 4.539062 4.902343.066407.214844.5.402344 5.019531 5.417969 11.335937-1.199219 4.121094.085937 2.957031-3.789062.714844-.648438.964844-1.332031.035156-.230469 4.488281-5.71875-1.730468-6.382812c10.738281-2.046875 21.476562-3.773438 32.179687-5.105469l4.570313 7.730469 5.421875 2.246094 1.628906.347656 14.441406-3.707031 3.90625-9.441407c7.898438-.5 15.792969-.878906 23.652344-1.011718Zm30.820312 1.3125-14.8125 1.742187-7.429687 12.917969 5.902344 13.679687L773 331.441406l1.5625.601563 14.808594-1.796875 7.429687-12.914063-5.917968-13.664062-5.050782-2.925781Zm49.597657 28.820312-9.539063 11.421875 3.4375 14.492188 4.523438 3.757812 1.414062.8125 14.875.816406 9.539063-11.46875-3.4375-14.480468-4.507813-3.753907-1.425781-.816406Zm-131.828125 7.980469-12.597657 7.960937-1.179687 14.84375 3.125 4.953125L692.480469 366l13.898437 5.320313 12.632813-7.929688 1.164062-14.828125-3.109375-4.96875-1.113281-1.230469Zm-78.953125 17.867187-13.449219 6.484375-2.691406 5.199219-.480469 1.582031 2.390625 14.710938 13.214844 6.847656 13.414062-6.449219 2.726563-5.203125.484375-1.597656-2.394532-14.691406Zm270.355468 9.808594-10.9375 10.085938 1.527344 14.8125 3.992188 4.304687 1.292968 1.015625 14.644532 2.722656 10.972656-10.089843-1.5625-14.808594-3.957031-4.320313-1.328125-1Zm-147.800781 27.058594-13.863281 5.402344-3.972656 14.378906 2.109375 5.449219.882812 1.398437 12.632813 7.894531 13.894531-5.433593 3.957031-14.347657-2.144531-5.449218-.847656-1.429688Zm-245.375 13.449219-14.777344 2.007812-4.1875 4.125-.929687 1.328125-2.246094 14.742188 10.421875 10.625 14.777344-2.011719 4.171875-4.140625.949219-1.363281 2.242187-14.691407Zm446.847656 3.539062-12.183593 8.542969-.449219 14.894531 3.375 4.800781 1.164062 1.164063 14.160157 4.65625 12.199218-8.578125.433594-14.894531-3.375-4.769532-1.179687-1.179687Zm-340.683593 13.082031-11.949219 8.890625-1.695313 5.621094-.183593 1.660156 5.117187 13.980469 14.296875 4.253906 11.933594-8.894531 1.695312-5.617187.199219-1.644532-5.167969-13.960937Zm173.582031 30.066407-14.410156 3.792968-5.585938 13.792969 1.496094 5.6875.714844 1.496094 11.652343 9.273437 14.378907-3.789062 5.585937-13.796875-1.464844-5.683594-.714843-1.496094Zm213.558594 8.628906-13.347657 6.632812-2.660156 14.660157 2.59375 5.234375 1.015625 1.332031 13.261719 6.714844 13.347656-6.617188 2.660156-14.644531-2.59375-5.25-.980468-1.347656Zm-532.164063 1.429687-14.378906 3.921875-3.609375 4.621094-.78125 1.460938-.28125 14.894531 11.71875 9.160156 14.378906-3.890625 3.605469-4.65625.78125-1.460937.285156-14.894532Zm139.007813 28.304688-10.839844 10.191406-1.011719 5.785156v1.660157l6.699219 13.28125 14.675781 2.59375 10.835938-10.191407 1.03125-5.78125v-1.664062l-6.714844-13.28125Zm207.089843 24.550781-14.609375 3.007813-6.28125 13.480468 1.160157 5.753907.285156.679687.03125.101563.265625.679687.332031-.132812 10.058594 9.859375 14.710937-2.296875 6.980469-13.148438-.882812-5.78125-.03125-.101562-.132813-.382813-.167969-.398437-.582031-1.460938Zm223.714844 4.371094-14.246094 4.355469-5.035156 14.03125 1.695313 5.582031.78125 1.496094 12 8.792968 14.261718-4.351562 5.019532-14.03125-1.710938-5.566406-.746094-1.496094Zm-599.851562 4.621094-13.726563 5.769531-2.960937 5.070312-.582032 1.5625 1.664063 14.792969 12.847656 7.511719 13.746094-5.785156 2.941406-5.066407.582031-1.546875-1.679687-14.8125Zm170.609375 34.808593L591.6875 569.351563l-.714844 5.816406.097657 1.546875v.433594l.066406.414062v.101563l8.046875 12.53125 14.84375 1.0625 9.738281-11.25.351563-5.105469H624.25l-.066406-.847656-.035156-.746094-7.363282-12.914063Zm228.449218 21.390625-14.792968 1.546875-7.59375 12.832032.644531 5.800781.449219 1.628906 10.125 10.902344 14.808593-1.578125 7.597657-12.832031-.617188-5.800782-.449219-1.59375Zm228.785157 3.109375-14.777344 1.84375-7.332031 12.964844.75 5.835938.480468 1.5625 10.324219 10.753906 14.777344-1.894531 7.363281-12.949219-.75-5.816406-.480469-1.578125Zm-648.21875 6.398438-12.699219 7.796875-2.144531 5.417969-.351563 1.613281 3.859375 14.394531 13.859375 5.519531 12.699219-7.796875 2.179687-5.417968.316407-1.664063-3.859375-14.378906Zm197.449218 37.398437-9.191406 11.6875-.167969 5.882813.265625 1.613281 8.628907 12.183594 14.875.347656 9.226562-11.71875.117188-5.882812-.25-1.613282-8.609375-12.148437ZM848.8125 646.027344l-14.878906.914062-8.144531 12.46875.347656 5.832032.402344 1.628906 9.640625 11.371094 14.859375-.949219 8.160156-12.464844-.367188-5.835937-.378906-1.59375Zm-447.429687 11.621094-11.269532 9.738281-1.230468 5.753906-.066407 1.660156 6.167969 13.53125 14.542969 3.191407L420.796875 681.75l1.230469-5.71875.066406-1.664062-6.167969-13.5625Zm233.089843 36.367187-14.894531.300781-8.675781 12.101563.132812 5.847656.332032 1.613281 9.140625 11.753907 14.878906-.285157 8.660156-12.117187-.101562-5.832031-.316407-1.664063Zm-231.960937 32.53125-9.40625 11.515625-.265625 5.851563.230469 1.664062 8.378906 12.300781 14.894531.648438 9.421875-11.539063.25-5.867187-.230469-1.628906-8.363281-12.296875ZM210.332031 1240.875l-13.316406 6.699219-2.625 14.644531 10.15625 10.871094 5.785156 1.03125 13.296875-6.683594 2.644532-14.644531-10.175782-10.871094Zm66.488282 0-13.316407 6.699219-2.625 14.644531 10.15625 10.871094 5.785157 1.03125 13.296875-6.683594 2.640625-14.644531-10.171875-10.871094Zm66.484375 0-13.3125 6.699219-2.625 14.644531 10.15625 10.871094 5.78125 1.03125 13.300781-6.683594 2.640625-14.644531-10.171875-10.871094Zm66.488281 0-13.3125 6.699219-2.628906 14.644531 10.15625 10.871094 5.785156 1.03125 13.296875-6.683594 2.644531-14.644531-10.171875-10.871094Zm847.714844 0-13.3125 6.699219-2.625 14.644531 10.15625 10.871094 5.78125 1.03125 13.300781-6.683594 2.640625-14.644531-10.171875-10.871094Zm66.488281 0-13.3125 6.699219-2.628906 14.644531 10.15625 10.871094 5.785156 1.03125 13.296875-6.683594 2.644531-14.644531-10.171875-10.871094Zm-664.875 66.488281-13.3125 6.699219-2.628906 14.644531 10.15625 10.871094 5.785156 1.027344 13.296875-6.679688 2.644531-14.644531-10.171875-10.871094Zm66.488281 0-13.3125 6.699219-2.628906 14.644531 10.15625 10.871094 5.785156 1.027344 13.296875-6.679688 2.644531-14.644531-10.171875-10.871094Zm66.488281 0-13.316406 6.699219-2.625 14.644531 10.15625 10.871094 5.785156 1.027344 13.296875-6.679688 2.644532-14.644531-10.175782-10.871094Zm66.488282 0-13.316407 6.699219-2.625 14.644531 10.15625 10.871094 5.785157 1.027344 13.296875-6.679688 2.640625-14.644531-10.171875-10.871094Zm66.484375 0-13.3125 6.699219-2.625 14.644531 10.15625 10.871094 5.78125 1.027344 13.300781-6.679688 2.640625-14.644531-10.171875-10.871094Zm66.488281 0-13.3125 6.699219-2.628906 14.644531 10.15625 10.871094 5.785156 1.027344 13.296875-6.679688L1007.5 1319.28125l-10.171875-10.871094Zm66.488281 0-13.3125 6.699219-2.628906 14.644531 10.15625 10.871094 5.785156 1.027344 13.296875-6.679688 2.644531-14.644531-10.171875-10.871094Zm0 0" style="stroke:none;fill-rule:nonzero;fill:#ff1616;fill-opacity:1"/>
  <path d="M931.886719 869.09375c-32.390625 0-58.96875 26.582031-58.96875 58.96875v14.742188c0 17.851562 8.492187 33.375 21.167969 44.226562-12.675782 10.851563-21.167969 26.375-21.167969 44.226563 0 17.851562 8.492187 33.375 21.167969 44.226562-12.675782 10.851563-21.167969 26.375-21.167969 44.226563v14.742187c0 32.386719 26.578125 58.96875 58.96875 58.96875h274.453125l-10.644531-21.332031s-13.191407-29.441406-13.191407-45.007813c0-15.566406 13.191407-45.007812 13.191407-45.007812l10.644531-21.332031h-45.65625c-.75-1.121094-.722656-.648438-1.84375-2.902344-2.8125-5.617188-5.820313-14.300781-5.820313-26.582031s3.007813-20.964844 5.820313-26.582032c1.121094-2.253906 1.09375-1.78125 1.84375-2.902343h45.65625l-10.644531-21.332032S1182.503906 951 1182.503906 935.433594s13.191407-45.007813 13.191407-45.007813l10.644531-21.332031Zm0 29.484375h228.679687c-3.746093 10.613281-7.546875 23.601563-7.546875 36.855469s3.800782 26.242187 7.546875 36.855469H931.886719c-16.46875 0-29.484375-13.015625-29.484375-29.484375V928.0625c0-16.46875 13.015625-29.484375 29.484375-29.484375Zm0 103.195313h198.265625c-3.09375 8.386718-6.617188 16.730468-6.617188 29.484375 0 12.753906 3.523438 21.097656 6.617188 29.484375h-50.84375v29.484375h81.257812c-3.746093 10.613281-7.546875 23.601562-7.546875 36.855468 0 13.253907 3.800782 26.242188 7.546875 36.855469H931.886719c-16.46875 0-29.484375-13.015625-29.484375-29.484375v-14.742187c0-16.46875 13.015625-29.484375 29.484375-29.484375h29.484375v-29.484375h-29.484375c-16.46875 0-29.484375-13.015625-29.484375-29.484375s13.015625-29.484375 29.484375-29.484375Zm58.96875 29.484375v103.195312l29.484375-29.484375 29.484375 29.484375v-103.195312ZM707.300781 911.976563h-34.75v-34.75h-173.75v34.75h-34.75c-19.113281 0-34.75 15.636718-34.75 34.75v17.375c0 44.304687 33.359375 80.445312 76.277344 85.832031 10.945313 26.0625 34.402344 45.695312 62.722656 51.429687v53.863282h-69.5v34.75h173.75v-34.75h-69.5v-53.863282c28.320313-5.734375 51.777344-25.367187 62.722657-51.429687 42.917968-5.386719 76.277343-41.527344 76.277343-85.832031v-17.375c0-19.113282-15.636718-34.75-34.75-34.75Zm-243.25 52.125v-17.375h34.75v66.371093c-20.15625-7.296875-34.75-26.410156-34.75-48.996093Zm121.625 104.25c-28.667968 0-52.125-23.457032-52.125-52.125v-104.25h104.25v104.25c0 28.667968-23.457031 52.125-52.125 52.125Zm121.625-104.25c0 22.585937-14.59375 41.699218-34.75 48.996093v-66.371093h34.75Zm0 0" style="stroke:none;fill-rule:nonzero;fill:#2196f2;fill-opacity:1"/>
  <use xlink:href="#a" x="464.241815" y="720.099938" style="fill:#2196f2;fill-opacity:1"/>
  <use xlink:href="#b" x="880.822728" y="635.522235" style="fill:#2196f2;fill-opacity:1"/>
</svg>
