<svg xmlns="http://www.w3.org/2000/svg" viewBox="0 0 12160 9120">
  <g fill="#2654A4" style="transform:none">
    <path d="M8760 8426c0-7 9-16 20-19 17-4 20-14 20-55 0-80 15-109 76-144 30-16 54-37 54-45 0-14 38-15 353-9 642 12 737 16 737 36 0 10 18 29 40 44 46 30 65 63 75 129 5 30 12 47 21 47 8 0 14 7 14 15 0 13-85 15-705 15-594 0-705-2-705-14zM5670 5756c0-8-8-17-17-21-10-4-666-10-1458-12l-1440-5-115-35c-218-65-375-154-531-301-166-156-278-335-349-557-28-85-34-123-41-255-5-85-10-992-11-2015l-3-1860 2120 3c1166 1 2818 3 3670 5l1550 4 89 27c126 39 253 96 352 157 105 66 263 213 345 321 77 103 159 272 202 418l35 115 4 1309 5 1309 24 18c13 10 22 20 19 22s-40 9-83 16c-44 6-112 22-153 36-109 37-119 35-150-27-55-108-161-242-244-308l-39-31-82 78c-77 73-139 154-203 266-32 56-37 57-171 22-52-13-124-27-160-31s-66-7-67-8c-1 0-5-692-8-1536l-5-1535-2938-3-2937-2v3700h2633c1447 0 2696 3 2775 7l142 6v30c0 24-15 46-70 103-38 39-70 77-70 84 0 18 148 161 220 212 36 25 86 56 113 69 44 21 47 26 47 61 0 52-30 158-45 158-7 0-15-9-18-20-5-20-14-20-1235-20-677 0-1237 3-1246 6s-16 12-16 20c0 12-39 14-220 14s-220-2-220-14z"/>
    <path d="M9336 5719c-113-27-233-129-289-246-31-65-32-73-32-193 0-107 3-134 23-187 32-84 103-167 181-214 77-47 113-58 206-66 222-18 423 112 480 311 13 44 16 86 13 170-3 103-6 116-39 187-60 126-165 210-297 238-62 13-190 13-246 0zM5240 3600c-78-5-117-13-154-30-67-32-147-114-185-190l-31-63v-293c0-161 3-299 6-308s17-16 29-16c13 0 205 44 427 99 584 143 586 143 669 148 100 7 234-19 747-147 222-55 416-100 432-100 20 0 29 6 34 23 3 12 6 217 6 455v432l-937-2c-516 0-985-4-1043-8z"/>
  </g>
  <path d="M8389 5097c9-12-14-15-132-20-78-4-1327-7-2774-7H2850V1310l2968 2 2967 3 5 1535c3 844 7 1536 8 1538 1 1 9 2 17 2s15 7 15 15c0 12-18 15-99 15-67 0-102 4-109 13-27 33-16 261 18 370 11 34 20 86 20 114v53l-52 26c-29 15-81 46-115 70-36 26-73 44-89 44-21 0-24-3-15-13zm-2854-737c4-7 255-10 721-10 794 0 740 5 807-69 27-30 37-50 37-75 0-42-34-94-80-120-34-21-50-21-732-24-444-2-698 0-698 6s-89 12-222 14c-193 3-228 6-261 22-41 20-83 69-88 101-9 65 50 142 118 155 59 12 391 12 398 0zm1655-1182c0-222-3-413-6-426-4-14-12-21-20-18-9 3-14-2-14-14s9-22 23-25c12-3 206-52 431-109l409-103-124-31c-720-185-1738-434-1790-438-44-5-102-1-170 11-87 14-1783 433-1829 451-20 8-21 8 400 114 195 50 374 95 398 101 31 9 42 16 42 31 0 13-5 18-14 15-8-3-17 1-20 9-3 9-6 134-6 278v263l31 63c38 76 118 158 185 190 73 34 154 37 1167 38l907 2v-402zm-2413-190c-1-40-3-8-3 72s2 112 3 73c2-40 2-106 0-145zm3343-207c0-230-2-270-15-275s-15 29-15 269c0 238 2 275 15 275s15-37 15-269z" fill="#FFF" style="transform:none"/>
  <g fill="#FFCC51" style="transform:none">
    <path d="M9500 8189c-151-3-341-7-422-8-141-1-148-2-148-21 0-11-40-181-89-378-96-381-281-1138-281-1147 0-3 428-5 951-5 796 0 950 2 946 14-12 31-437 1532-437 1544 0 13-37 13-520 1zM2261 7769c-106-21-228-118-276-221-23-48-25-65-25-189 0-127 2-138 27-190 80-161 274-254 461-220 164 29 277 121 325 265 22 65 23 214 1 286-60 204-274 316-513 269zM9375 6398c-91-85-150-159-201-254-21-38-39-71-40-73-2-2-41 9-86 24-73 25-102 29-240 33-87 2-169 1-184-2l-27-7 6-197c3-141 9-211 21-247 9-27 16-54 16-60 0-5-28-25-63-42-119-62-337-260-337-306 0-23 154-181 224-232 34-23 85-54 114-69 60-30 62-38 32-133-37-119-48-391-17-430 5-7 22-13 37-13s41-7 56-15c26-13 29-13 32 0 2 8 8 13 13 9 15-9 197 16 292 41l88 22 26-46c66-114 128-194 213-274 51-48 99-87 106-87 21 0 196 178 241 245 22 33 52 83 66 111l26 51 68-23c111-37 186-45 324-34 67 6 125 13 128 16s6 83 5 177c-1 159-3 178-28 255-15 46-26 85-24 87 2 1 23 13 48 25 105 53 283 200 342 282l20 29-59 66c-73 84-196 182-280 223-73 36-70 22-32 160 20 72 24 108 24 237 0 100-4 156-11 163-32 32-290 20-432-21-37-10-73-19-79-19-7 0-28 30-47 68-18 37-55 95-81 129-50 68-191 203-211 203-7 0-46-32-89-72zm177-709c132-28 237-112 296-238 124-260-34-551-327-602-121-22-259 28-358 128-161 163-162 419-3 587 105 112 245 156 392 125zM1552 5816c-24-26-46-74-55-121-5-29-2-32 71-72 42-24 81-43 88-43 19 0 115 165 102 175-18 14-158 85-169 85-8 0-24-11-37-24z"/>
  </g>
  <g fill="#38B6FF" style="transform:none">
    <path d="M1010 8455v-45h478c420-1 475-2 458-15-11-8-18-16-15-18 2-2 201-1 442 1 371 4 436 6 426 18s90 14 663 14h675l6-282c8-313 18-375 79-491 97-181 304-338 486-368 32-5 190-9 352-9s366-3 453-7l157-6V5740h440v1507l458 6c512 8 541 11 668 75 159 80 254 174 330 325 57 112 64 156 74 452 5 149 9 278 10 288 0 16 88 17 1705 17h1705v90H1010v-45zM1505 7591c-56-25-101-66-131-117-30-50-26-74 11-74 18 0 31 11 50 40 27 42 83 85 127 95 43 11 48 75 4 75-11 0-39-9-61-19zM1930 6575c0-8 7-15 15-15 21 0 20-6-26-95-51-99-338-615-352-633-5-7-8-14-6-16 15-11 181-97 184-94 1 1 16 30 33 63 48 95 412 738 430 758 8 9 21 17 29 17 7 0 13 7 13 15 0 13-24 15-160 15s-160-2-160-15zM1477 5645c-31-64-32-75-11-116 18-36 67-59 103-50 22 6 109 102 111 122 0 6-132 83-160 94-11 4-23-10-43-50zM1372 5555c5-60 16-79 40-70 13 5 13 13 0 65-10 40-20 60-30 60-12 0-14-11-10-55zM4738 3038l-3-193-95-27c-52-15-149-41-216-58-147-38-148-39-135-73l10-25 211 53c116 30 227 62 248 72 33 16 38 23 44 68 3 28 7 123 7 213l1 162h-70l-2-192z"/>
  </g>
  <g fill="#09936F" style="transform:none">
    <path d="M1989 8400c-72-9-136-40-198-96-88-79-129-168-147-316l-5-47-67-6c-158-15-277-67-386-166-82-76-133-152-169-257-24-70-29-101-29-176 1-171 53-297 177-422 115-116 233-170 418-189l57-6v-146l83-6c107-9 880-9 1157 0l215 6-3 764-2 764-35 68c-44 88-107 150-203 201l-77 40-365-1c-201-1-390-5-421-9zm452-660c310-59 427-436 202-655-81-79-222-124-327-106-123 22-245 112-299 220-24 49-27 66-27 160 0 131 21 184 107 270 101 100 212 136 344 111zm-801-415c0-195-3-355-7-355-179 8-300 79-364 213-25 53-29 74-29 147s4 94 29 145c58 124 179 205 304 205h67v-355zM5107 4390c-109-21-162-174-92-266 47-62 76-68 323-72 123-2 222-8 222-13s7-9 15-9c13 0 15 26 15 171 0 152-2 173-17 185-14 10-67 13-223 13-113-1-222-5-243-9zM8060 2801c0-154-3-282-7-284-5-2-381 89-838 204-456 114-893 220-969 234-167 33-296 31-446-4-166-40-1610-400-1740-435l-125-33 55-16c169-49 1822-458 1909-473 195-32 183-34 1254 235 527 132 967 243 977 246 19 6 20 17 20 306v299h-90v-279z"/>
  </g>
  <path d="M5560 4207v-178l728 3c667 3 730 4 759 20 63 35 100 114 87 185-7 36-59 104-98 126-16 9-210 13-749 17l-727 5v-178z" fill="#E9E7DB" style="transform:none"/>
</svg>
