<svg xmlns="http://www.w3.org/2000/svg" viewBox="0 0 12160 9120">
  <g fill="#2654A4" style="transform:none">
    <path d="M8770 8425c0-8 6-15 13-15 8 0 12-20 12-67 0-83 18-113 88-146 26-12 47-28 47-36 0-12 58-13 393-7 592 10 705 15 700 35-2 10 9 23 34 36 54 29 83 77 83 136 0 37 4 49 15 49 8 0 15 7 15 15 0 13-84 15-700 15s-700-2-700-15zM5670 5750c0-19-13-20-1452-22l-1453-3-95-26c-255-71-420-165-596-339-175-174-288-380-350-640-17-71-18-192-21-2053l-3-1977 3652 3c3408 3 3658 4 3721 20 260 65 459 174 631 344 171 169 275 351 344 601l27 97 3 1313c2 1148 4 1312 17 1312 8 0 15 6 15 13 0 9-27 18-81 26-45 7-112 23-149 37-104 37-114 35-149-36-16-33-44-81-62-106-37-55-151-177-190-205l-27-19-49 41c-82 70-169 179-215 266l-43 84-45-4c-25-3-76-14-115-26-38-12-105-24-147-28l-78-6-2-1536-3-1536-2938-3-2937-2v3700h5560v33c0 27-12 45-75 107-41 41-75 80-75 87 0 21 121 144 201 203 41 30 101 67 132 80 67 29 70 43 35 146-21 58-48 86-48 49 0-13-145-15-1246-15-1237 0-1246 0-1251 20-5 19-14 20-224 20-211 0-219-1-219-20z"/>
    <path d="M9324 5715c-137-37-254-150-295-286-18-58-20-89-17-182 3-101 6-119 35-180 77-162 231-257 418-257 242 0 422 151 456 382 36 248-95 466-316 523-72 18-212 19-281 0zM5160 3596c-115-31-202-102-252-204l-33-67-3-312-3-313h37c20 0 251 55 513 122l476 123 145-1h145l482-122c266-67 499-122 518-122h35v910l-1007-1c-769 0-1019-3-1053-13z"/>
  </g>
  <path fill="#FFF" d="M8400 5085c11-13-298-15-2769-15H2850V1310l2968 2 2967 3 3 1538c2 1357 4 1537 17 1537 8 0 15 7 15 15 0 12-15 15-77 14-129-1-130-1-136 89-7 102 9 230 39 318 13 39 24 86 24 105 0 33-4 37-52 59-28 13-80 43-115 67-62 42-131 61-103 28zm-1403-736c47-15 83-47 104-93 16-36 16-43 3-75-21-50-50-78-101-97-40-16-117-17-941-12-806 5-901 8-937 22-81 34-126 104-105 162 15 38 58 83 94 99 36 15 1831 9 1883-6zm193-1194c0-380-2-425-16-425-9 0-14-7-12-17 3-15 83-38 423-124 403-102 418-107 380-117-131-36-1724-435-1789-448-156-32-170-29-1161 220-495 125-908 230-919 234-12 5 125 43 405 113 336 84 425 109 427 122 2 10-3 17-13 17-14 0-16 28-13 283l3 282 33 67c35 72 104 142 169 174 90 43 85 43 1106 43l977 1v-425zm-2413-208c-1-45-3-5-3 88 0 94 2 130 3 82 2-48 2-125 0-170zm3343-166c0-230-2-270-15-275s-15 29-15 269c0 238 2 275 15 275s15-37 15-269z" style="transform:none"/>
  <g fill="#FFCC51" style="transform:none">
    <path d="m9374 8187-440-10-193-774c-106-427-190-777-188-779s433-3 959-2l955 3-217 760c-119 418-220 772-224 788l-6 27-103-2c-56-1-300-6-543-11zM2260 7769c-113-22-221-108-274-219-30-62-31-71-31-190 0-115 2-130 27-182 86-183 291-274 506-223 84 20 136 48 191 104 91 90 132 227 112 371-24 173-143 303-309 339-61 13-157 13-222 0zM9365 6398c-95-90-158-171-205-266l-30-61-63 23c-90 35-196 48-335 44-96-2-125-6-132-18-15-23-12-265 4-356 8-45 22-98 30-119 9-21 15-39 14-39-2-1-28-13-58-26-78-36-194-125-273-210-38-41-73-82-78-92-7-14 8-35 82-113 103-108 156-149 249-195 36-18 67-34 68-36 2-1-8-35-21-76-34-97-49-237-41-359 7-106 9-109 77-109 15 0 27-5 27-11 0-7 9-9 23-5 12 4 72 11 132 16 92 8 161 22 265 56 11 3 28-20 58-79 24-46 70-114 103-152 62-72 177-175 195-175 19 0 171 148 223 217 27 37 63 95 80 129l30 62 63-23c102-37 198-49 333-41 66 4 124 11 130 17s10 75 9 172c-1 144-4 171-26 242-14 44-28 87-32 95-4 11 6 20 39 33 101 42 258 168 346 279l30 37-62 71c-77 89-193 183-279 224-36 17-67 32-68 33-2 1 8 36 22 79 34 101 50 240 41 359-8 108 0 101-115 108-101 7-252-11-341-39-44-14-82-24-82-22-49 101-82 156-127 213-60 74-187 194-207 195-6 0-51-37-98-82zm210-713c122-32 222-115 277-232 123-260-37-557-325-605-180-30-367 74-449 249-63 133-46 307 41 423 112 149 281 210 456 165zM1560 5825c0-8-5-14-11-12-19 4-51-61-54-106l-3-43 83-44 83-44 25 24c25 26 61 87 62 105 0 6 4 16 8 23 12 18 3 27-74 71-73 43-119 52-119 26z"/>
  </g>
  <g fill="#262204" style="transform:none">
    <path d="M1010 8455v-45l483-1c265-1 474-3 464-6-9-2-15-9-12-14 8-12 852-12 860 0 3 5-3 12-12 14-10 3 289 5 665 6l682 1v-273c0-240 2-283 20-351 32-126 91-228 190-326 92-92 168-139 295-181 69-23 79-24 548-27l477-3V5740h440v1510h445c513 0 545 3 690 75 153 75 254 175 325 320 64 132 71 175 77 488l5 277h3408v90H1010v-45zM1540 7611c-77-24-142-76-175-142-14-27-25-53-25-58s17-11 39-13c37-3 40-1 61 40 24 44 78 83 133 96 24 6 27 11 27 46 0 43-7 47-60 31zM1940 6571c0-5 5-11 12-13 13-5-42-108-269-511-67-121-123-223-123-228s4-9 10-9c5 0 44-20 86-45 41-25 80-45 85-45s13 10 18 23c8 19 210 380 401 715 29 52 59 96 67 99 40 16-3 23-137 23-84 0-150-4-150-9zM1480 5663c-35-58-41-91-26-128 27-63 98-85 149-45 22 17 77 99 77 114 0 5-163 96-173 96-3 0-15-17-27-37zM1365 5596c-7-35 9-111 25-121 5-3 18 0 28 6 17 11 18 15 6 38-8 14-14 40-14 56 0 19-7 35-20 42-17 11-20 9-25-21zM4740 3039v-190l-32-13c-18-7-122-35-230-62-109-27-198-52-198-56 0-3 4-18 9-31l10-25 232 58c169 43 238 64 253 79 20 20 21 33 24 226l3 205h-71v-191z"/>
  </g>
  <g fill="#09936F" style="transform:none">
    <path d="M1935 8396c-66-21-107-46-166-103-77-73-119-164-126-273l-6-80h-51c-221-1-437-138-542-342-128-251-61-552 163-739 96-80 255-138 381-139h52v-157l193-5c106-2 434-2 730 0l537 5-2 771-3 771-32 67c-41 88-113 160-201 201l-67 32-410 2c-310 2-420-1-450-11zm517-657c248-53 382-322 272-547-55-112-157-187-291-213-163-31-346 69-421 229-23 49-27 70-27 152 0 85 3 102 31 160 80 167 258 257 436 219zm-812-410v-352l-72 5c-125 8-227 75-289 190-32 59-34 69-34 158 1 84 4 101 28 147 66 127 180 202 310 203h57v-351zM5085 4386c-116-52-141-209-46-289 49-41 89-47 329-50l222-2v171c0 170 0 172-22 178-13 3-120 6-238 5-158 0-223-3-245-13zM8060 2795c0-157-3-285-6-285s-416 104-919 230c-971 245-1018 254-1182 239-60-5-395-85-1048-249-528-133-961-243-964-245-6-7-36 1 984-256 939-237 963-242 1081-247 88-3 143 0 200 12 60 12 1713 426 1907 477l37 10v599h-90v-285z"/>
  </g>
  <g fill="#E9E7DB" style="transform:none">
    <path d="M5560 4215v-175h723c681 0 724 1 763 19 133 60 136 242 4 309l-44 22H5560v-175zM8680 4380c0-11 14-11 50 0 22 7 21 8-12 9-21 1-38-3-38-9z"/>
  </g>
</svg>
