<svg xmlns="http://www.w3.org/2000/svg" viewBox="0 0 6000 6000"><g style="transform:none"><path d="M2725 4874c-177-3-896-27-1153-39-123-6-173-20-194-57-10-17-15-108-21-348-11-464-12-501-8-851l3-317 22-10c19-9 23-19 25-70l2-60-38-4c-21-3-87-6-148-7-241-4-416-41-482-103-12-11-26-17-31-14-21 13-26-115-38-842-6-377-7-393-26-403s-20-20-16-144c4-179 15-194 191-255 133-47 406-78 867-100 124-6 254-16 290-23 42-8 176-12 385-12 446 1 598 24 653 102 22 31 42 114 42 172 0 21 3 53 6 71 7 30 9 32 43 26 20-3 182-13 361-22 258-13 427-15 825-10 700 9 953 27 978 68 7 11 26 25 44 33 42 18 61 50 74 121 6 32 24 100 40 149 26 81 30 108 36 275 5 150 3 200-10 260-13 63-17 188-21 760-3 377-8 720-12 762-5 70-4 79 12 85 24 10 23 3 31 221l6 187-27 52c-14 29-26 64-26 79 0 17-14 42-40 70-22 24-40 47-40 52s-24 16-52 25c-134 41-291 56-788 78-135 5-333 14-440 19s-325 12-485 14c-159 3-371 7-470 9s-265 2-370 1zm1010-123c15-15 152-30 370-41 110-5 220-12 245-15s223-17 440-31l395-25 37-37c20-20 37-41 38-45 0-4 10-29 22-55l23-47 5-760c8-1317 9-1250-19-1322-13-35-27-63-31-63s-12-19-18-43c-12-46-48-100-84-125-12-9-45-20-73-24-243-37-454-52-900-64-121-3-226-7-232-9-7-3-13-20-13-40v-35l88-1c48 0 193-4 322-8 144-5 299-5 400 1 177 11 461 12 523 2l37-6v-53c0-81-18-153-43-170-12-8-36-15-54-15h-33l20 20c15 15 20 33 20 78 0 85-13 99-107 107-72 7-78 6-95-15-13-16-18-39-18-82 0-80 26-107 102-109 45-2 42-3-27-9-108-10-444-21-425-13 8 3 25 15 38 26 19 17 22 31 22 86 0 72-3 79-40 104-29 20-81 22-134 3-52-18-66-39-66-101 0-59 19-91 63-110 44-18-804-31-1068-16-104 6-228 11-275 11-141 0-132-9-126 139 3 69 5 145 6 167v42l255-6 255-5v70l-102 7c-105 7-242 19-355 32l-63 7v78c0 44 2 79 5 79 2 0 26-8 52-19 111-43 291-81 392-81 30 0 83-5 118-11 54-10 74-9 126 6 75 21 128 49 147 78 32 48 28 408-4 429-19 13-74 9-79-6-8-19-156-39-264-34-66 2-100 9-134 26-25 12-50 22-57 22-29 0-153 80-204 132-57 58-136 181-176 274-12 29-29 106-38 178-16 117-16 132-1 209 22 111 77 215 145 278 30 27 63 51 75 53s64 14 116 26c134 31 256 17 365-42 41-22 102-84 124-125 22-40-3-48-207-67-102-9-205-20-228-23l-43-6v-375l68-9c122-15 495-9 637 10 72 10 140 20 151 22 25 5 36 41 54 175 7 47 18 104 26 128 37 114-8 393-84 507-58 88-184 198-297 258-76 40-196 68-335 77-103 7-151 5-270-11-269-37-403-92-531-219-94-93-138-160-185-274-48-118-71-240-79-421-6-136 4-295 21-340 7-18-39-20-131-5-68 11-308 18-633 19l-224 1 6 548c4 330 11 570 18 605l11 57h77v-110h34c31 0 36 4 46 36 7 20 25 64 41 98 27 60 28 60 29 26 1-65 9-80 45-80 29 0 33 3 38 34 3 19 13 51 21 70 38 85 45 105 65 170 12 37 21 81 21 96v28l208 7c625 23 1581 32 1597 16zm-136-516c186-67 367-198 416-301 51-109 68-177 67-279-1-121-29-258-58-290-18-19-35-24-116-30-114-9-483-3-494 7-6 6-7 148-1 154 1 1 65 7 142 13 77 5 174 15 215 21 41 7 89 14 107 16 30 4 32 7 39 61 5 46 3 65-16 107-12 28-24 60-28 70-3 11-12 27-21 37-40 46-60 65-86 84-16 11-36 27-44 36-16 16-32 23-136 53-27 8-113 18-191 22-136 6-144 6-222-20-89-30-202-103-244-158-14-18-33-55-42-81-9-27-25-65-35-85-45-88-54-359-16-477 9-27 20-62 25-76l8-27-52 14c-28 8-88 17-133 20l-81 7-12 46c-18 68-24 312-11 412 26 193 104 352 238 482 126 123 312 196 463 182 36-3 79-1 95 4 44 15 146 4 224-24zM930 3030c-32-20 6-23 143-10 169 15 1090 16 1207 0 41-5 113-10 160-10 117 0 303-19 347-34 21-7 45-24 55-37 45-61 68-244 72-562 1-111-1-127-15-127-12 0-19-12-23-37-16-93-16-93-46-93-22 0-29-6-34-27-4-16-16-54-29-85-17-47-26-58-44-58-15 0-28-10-39-32-9-18-20-35-23-38-31-23-61-81-61-118v-42h40c29 0 43 5 52 20 13 20 38 24 72 11 17-7 15-10-18-36l-37-28-283 2c-186 2-298-1-325-9-41-11-42-12-39-48s5-37 48-44c60-9 416-30 618-35l162-5v-76c0-97-4-100-158-113-153-13-786-13-860 0-31 6-158 15-282 21s-241 14-260 19-26 9-16 10c41 2 56 30 56 103 0 60-3 72-25 93-21 22-33 25-95 25-94 0-110-15-110-105 0-57 3-69 25-90 13-14 21-25 17-25-26 1-213 31-237 39-28 9-26 9 20 10 72 2 88 18 93 92 4 51 1 65-17 90l-21 29 47-6c27-3 80-10 118-15 89-13 597-24 659-15 44 7 46 8 46 42v34h-87c-103 0-370 25-404 38-13 5-87 15-164 21-295 26-389 55-428 132-39 80-57 204-57 400 0 102 3 207 6 233 6 43 9 46 35 46s29 3 29 35c0 24 5 35 15 35s15 10 15 30c0 28 3 30 36 30h36l-6 83c-17 222-18 225-65 209-19-7-31-7-31-1 0 5 1 9 3 9 1 0 20 7 42 15 47 17 89 20 65 5zm2284-394c27-14 54-26 61-26s25-11 40-24c16-14 47-29 69-34 99-25 339-23 399 3 15 6 17-1 17-86v-94l-36-25c-28-19-53-25-106-28-149-9-536 94-591 157-11 11-16 54-19 148l-5 132 61-49c34-26 84-60 110-74zM930 1680l55-8-56-1c-75-1-94-22-94-101 1-43 6-64 19-79l19-21-41 18c-43 18-45 21-67 169l-7 42 59-6c32-3 83-9 113-13z"/><path d="M4262 4531c-102-5-135-10-142-21-9-14-5-184 6-256 7-49 35-68 91-61 31 3 61 0 83-9 78-33 253-46 517-40 253 7 306 14 322 45 15 28 51 186 51 224 0 29-20 67-35 67-2 0-56 7-120 15-309 41-480 49-773 36zm393-121c83-6 205-18 273-27l124-16-7-36c-12-67-10-66-273-65-180 1-257 5-322 18-47 9-113 20-147 23l-63 6v106l108 3c59 2 118 2 132 1s93-7 175-13zM4760 1920c-16-16-20-33-20-86 0-59 3-68 29-95 26-25 37-29 86-29 65 0 110 20 119 52 14 56 6 116-20 147-25 29-29 31-100 31-61 0-78-4-94-20zM1716 2708c-3-29-6-72-6-95 0-42 1-43 33-43 18 0 38 5 45 12 13 13 16 95 6 147-6 27-11 31-39 31-31 0-32-1-39-52zM1013 2673c-11-56-8-266 5-363 16-110 45-230 69-277 15-33 23-38 56-41s38 0 48 25c12 33 9 60-19 164-11 41-23 96-27 122l-7 47h135l-7-52c-3-29-9-86-13-125l-6-73h35c44 0 77 33 85 86 3 21 10 45 16 52 5 6 12 51 14 100 4 79 3 89-18 114l-22 27-118-6-119-6v46c0 25-5 69-11 99-6 29-13 63-15 76-4 18-11 22-39 22-31 0-35-3-42-37zM1320 2640c0-39 1-40 35-40s35 1 35 40-1 40-35 40-35-1-35-40zM1893 2637c-33-33-31-79 5-94 45-20 101-72 122-113 17-34 18-47 9-165-6-89-16-142-29-173-24-54-27-112-5-112 8 0 15-4 15-10 0-17 66-11 83 8 27 30 48 131 54 268 7 155-12 257-59 329-54 82-146 111-195 62zM1702 2414c-71-86-49-194 39-194h35l12 98c17 136 18 132-22 132-27 0-41-7-64-36zM1640 2055c0-51 6-99 14-119 15-37 7-34 174-52l52-6v34c-1 35-18 60-119 169-45 49-59 59-87 59h-34v-85zM1597 1562c-11-12-17-36-17-71 0-45 4-57 29-82 27-26 36-29 98-29 92 0 110 6 122 42 16 46 13 89-9 126l-20 32h-93c-78 0-97-3-110-18z"/></g><path d="M986 2952c-3-5-5-48-5-96 1-99-4-89 114-210 33-33 67-73 74-88 15-30 118-138 131-138 4 0 11 8 14 17 6 15 10 13 32-12 16-19 23-37 20-49-3-13 3-29 16-43l22-23-31-30c-19-19-33-44-37-68-3-23-16-48-32-63l-27-24 7 35 6 34-33-32c-21-20-43-32-60-32-15 0-28-6-29-12 0-7-2-25-3-39-1-15-5-35-9-45-7-18-9-17-27 5l-20 24-45-48c-24-27-47-59-50-72-4-12-10-23-15-23s-9-13-9-30c0-16-5-30-11-30-8 0-10-15-6-45 5-53 5-53 38-59 13-2 23-9 22-15-4-14 9-14 40 0 16 7 51 8 111 2l86-9-2 34c-2 24 3 37 16 44 10 6 27 19 37 29 11 11 24 19 29 19 6 0 10 5 10 10 0 6 7 10 15 10 9 0 15 9 15 25 0 14 5 25 10 25 6 0 10 14 10 30 0 29 9 41 67 90 7 5 26 10 43 10 28 0 30 2 30 39 0 22 5 43 11 47 6 3 33-15 60-42l49-48v29c0 30 1 29 58-31 31-33 66-72 76-85s26-33 35-43c15-18 15-19-18-12l-34 6 19-22c10-12 27-30 37-40 9-10 17-33 17-53 0-19 5-35 10-35 6 0 10-7 10-15 0-9 9-15 24-15s26-7 29-20c3-11 12-20 21-20s16-4 16-9 33-12 73-15c39-4 100-9 135-13 50-4 62-3 62 9 0 8 8 30 17 49 21 41 31 149 14 149-6 0-11 6-11 14s-11 17-24 20-26 15-29 26-12 20-21 20-16 5-16 10c0 6-7 10-15 10s-17 11-21 24c-8 32-42 38-71 12-13-11-23-14-23-8 0 7-7 12-16 12-10 0-14 5-10 15 3 8 9 22 12 30 4 10 0 15-14 15-24 0-61 30-172 139-73 72-85 81-88 63-4-28-13-28-39 1-28 29-21 65 23 114l33 38-5-35-6-35 29 31c15 17 56 65 91 108 58 71 61 77 42 84-20 8-20 8 5 30 17 15 33 20 48 17 17-5 34 6 75 45 28 27 52 54 52 58 0 5 12 15 26 22 35 19 76 109 72 157l-3 38-70 3c-48 2-73-1-80-10-13-16-44-37-67-44-10-4-18-11-18-18 0-6-43-54-95-105-73-73-95-101-95-122 0-14-7-32-15-39-13-11-15-8-15 16 0 27-5 23-90-61l-91-90-37 41c-20 22-47 51-58 65-12 13-33 33-47 45-15 13-27 36-32 62-6 37-10 42-34 42-23 0-31 7-46 40-10 22-22 40-27 40-4 0-8 9-8 20 0 13-7 20-20 20-11 0-20 4-20 10 0 17-50 60-78 66-15 4-36 13-47 20-21 15-111 19-119 6z" fill="#FF1616" style="transform:none"/><g fill="#38B6FF" style="transform:none"><path d="M1650 5224c-421-35-566-62-780-147l-105-41 75-11 74-10-99-37c-55-20-102-35-104-32-2 2 6 16 20 30 24 26 23 26-41-6-204-102-369-283-428-470-57-176-20-384 97-562 93-141 330-379 470-473 113-74 251-142 296-144 32-1 188-44 252-68 11-4 12 19 9 133-11 335-1 1278 15 1337 20 76 46 80 589 97 201 6 399 13 440 15 339 18 1442 0 1865-30 17-1 125-5 240-9 408-13 619-37 745-85 30-12 58-21 62-21s-16 49-45 109c-45 94-56 109-81 115-16 3-110 6-210 6-172 0-226 7-336 38-19 6-46 13-60 17-24 5-24 5-2-4 12-6 22-13 22-17 0-11-197 3-526 36-292 29-355 41-408 75-14 9-30 14-36 10-7-4-45-4-85 0l-73 7 16 29c10 15 24 30 32 33 8 2 3 4-12 5-16 0-28-4-28-10 0-15-67-5-106 16-36 19-44 19-44 0 0-22-92-20-375 10-440 46-606 56-950 60-187 1-360 1-385-1zM5418 4518c8-38 6-366-2-418l-5-35 72-1c40-1 56 0 37 2-59 7-81 14-75 24 3 6 21 10 39 10 17 0 36 4 42 9 18 17 82 20 95 5 17-21 53-19 45 4-13 32-241 431-248 431-3 1-3-14 0-31zM5431 2373c-1-78-6-210-12-293-6-84-8-154-5-157s15 28 28 68c21 66 23 92 22 244-1 118-6 187-17 225l-15 55-1-142zM570 1706c-36-23-100-80-142-125-86-91-145-197-175-312-15-58-15-69-3-84 18-22 107-66 200-99 41-15 122-51 180-80 250-128 481-188 960-251 262-34 475-54 480-45 4 6 75 3 175-6 94-8 258-17 365-18 189-3 209-6 257-29 18-8 38-6 85 8 136 39 158 43 259 48 219 12 735 126 1079 238 426 140 748 353 940 622 23 32 40 60 39 62-2 1-47-3-99-11-88-12-198-20-395-29-44-2-280-7-525-10-422-7-784 3-1136 31l-81 7-6-33c-4-18-7-50-7-71 0-58-20-141-42-172-54-76-209-101-623-102-184 0-314 4-355 12-36 7-117 14-180 18-261 13-327 16-375 20-27 2-111 9-185 15-201 17-324 37-418 70-181 63-190 78-192 298 0 39-3 72-7 72-5-1-37-20-73-44z"/><path d="M2818 1377c-38-8-48-15-48-30 0-18 5-19 55-13 60 7 95 23 95 43 0 15-34 15-102 0z"/></g><g fill="#FFF" style="transform:none"><path d="M3075 4789c-423-7-731-15-1012-26l-163-6v-27c0-30-32-143-57-200-9-19-22-50-30-68s-17-49-20-69c-6-33-7-34-14-15-11 29 11 154 45 257 35 107 34 115-9 115-31 0-35-3-35-27 0-16-13-65-29-110s-27-84-24-86c2-3-13-43-35-89-21-45-45-101-52-123s-15-34-18-27c-9 29 21 179 63 306 25 74 45 139 45 145s-11 11-25 11c-25 0-35-23-16-35 10-5 1-39-34-135-9-25-20-47-25-50-4-3-24-36-44-75-19-38-36-65-37-60-5 37 8 97 47 209 24 71 42 131 40 134-8 8-26-9-26-24 0-9-12-41-26-72-44-96-83-200-104-275-18-63-20-105-21-342-1-148-4-409-8-580-4-170-4-313-1-316 4-5 614-22 755-21 11 0 58-4 105-10 99-13 179-13 192 0 5 5 1 37-8 78-14 53-17 109-16 241 2 202 20 313 76 449 90 221 257 378 472 446 117 36 347 64 471 57 187-12 299-51 438-155 172-128 241-249 267-471 10-85 9-106-5-153-9-30-21-91-28-135-17-129-29-165-53-170-169-35-562-52-728-32l-68 9v318l28 1c15 1 36 3 47 4 11 2 99 11 195 20s183 20 192 26c10 5 25 9 33 9 34 0-2 87-66 158-67 73-159 109-307 118-81 6-111 3-184-15-49-12-92-19-98-16-13 8-88-44-131-92-74-83-128-236-129-365 0-91 29-278 53-333 39-92 118-215 175-273s176-132 212-132c10 0 21-4 25-9 11-19 102-41 185-44 100-5 280 18 296 38 5 7 15 11 21 7 14-10 25-117 24-236-2-110-13-141-64-171-44-26-140-53-162-45-11 4-54 8-97 9-42 1-87 4-100 6-12 2-45 6-73 10-78 10-223 53-300 89l-71 33 4-126c2-69 5-127 6-128s22-4 46-7c25-3 65-7 90-10 62-8 139-15 240-22 47-3 87-8 90-11 6-7-415 5-445 13l-22 5-1-205-2-205 33-5c34-5 217-13 527-22 244-8 1421 14 1577 29 84 8 127 17 138 27 18 19 45 150 40 200-1 19-3 45-4 57-1 18-9 23-48 29-27 4-86 7-133 7-47-1-90 3-96 8-7 6-42 5-85-1-81-11-417-30-434-24-13 4-419 16-508 14-42-1-67 3-63 8 3 6 70 11 148 11 79 1 181 4 228 6s148 7 225 10 183 10 235 15 123 12 158 15c35 4 77 11 95 16s45 9 62 9c59 0 127 68 147 148 6 23 14 42 18 42s18 28 31 63c27 69 26 45 20 1137-1 245-1 549 0 675 1 251-2 315-22 360-7 17-13 32-14 35-10 29-24 51-55 83-40 42-17 38-280 52-63 3-133 8-155 10s-85 7-140 10-156 10-225 15c-69 6-213 15-320 20-206 11-348 26-365 40-16 13-247 16-690 9zm1647-294c183-16 386-41 411-51 8-3 18-12 21-21 6-15-29-174-45-204s-68-38-294-44c-236-7-410 7-490 41-26 10-56 15-87 12-71-7-81 9-88 135-6 107-4 131 11 121 6-3 16 0 24 6 11 10 15 10 15 1 0-7 5-9 11-5 12 7 171 20 279 22 36 1 140-5 232-13zm203-2617c52-62 13-138-70-138-40 0-85 50-85 94 0 49 24 71 82 73 42 1 51-2 73-29zm-294 13c3-1 15-10 27-21 32-30 30-89-3-120-66-62-188 21-144 98 8 15 21 27 29 27 8 1 24 6 34 12 11 6 27 9 35 8 9-2 19-4 22-4zm542-23c41-48 7-118-58-118-68 0-108 73-70 128 14 19 22 21 63 16 29-4 54-14 65-26z"/><path d="m4293 4452-81-3-4-47c-1-26-2-63 0-83l3-36 62-6c34-3 100-14 147-23 109-22 607-27 632-6 13 10 38 101 38 137 0 7-49 18-132 28-135 17-498 46-553 43-16 0-67-2-112-4zM4843 1873c-19-7-16-60 3-67 26-10 34-7 46 19 17 38-10 64-49 48zM4562 1852c-17-11 0-57 24-66 22-9 46 20 42 49-3 22-43 32-66 17zM5096 1854c-12-12-13-20-6-35 13-23 18-24 41-3 14 13 16 21 8 35-12 23-23 24-43 3zM3163 4285c-169-31-273-82-378-183-131-128-211-289-236-481-14-101-6-415 11-477l12-41 81-7c86-6 205-34 246-56 22-11 23-11 17 6-4 9-11 37-17 62-5 25-18 71-29 102-41 121-35 341 11 432 10 20 26 59 35 85s29 64 45 84c42 53 153 125 235 153 63 21 84 23 190 19 65-2 142-11 169-19 104-31 120-37 136-53 8-9 28-25 44-36 15-11 37-30 49-43 42-46 56-62 52-62-3 0 8-28 24-62 24-52 27-69 21-98-5-19-9-29-10-22-1 18-21 15-21-4 0-8-5-12-10-9-6 3-45-1-88-9-65-14-275-35-348-36-19 0-22-7-27-88-9-122-6-129 56-136 74-9 417-9 516-1 69 7 88 12 105 30 26 28 57 163 62 262 1 40 5 76 7 80 8 13-22 144-50 218-53 143-140 226-342 325-119 59-175 74-276 74-49 0-103-1-120-2-16-2-46-1-65 2s-68-1-107-9zM1205 3060c-195-9-235-15-328-49-58-22-72-31-69-47 1-10 4-80 7-154 5-144-10-153-22-13-3 40-8 71-11 69-7-7-4-212 3-239 5-17 4-19-4-6-10 16-30 153-33 229 0 25-5-20-10-100-4-80-10-161-12-180-3-19-5-134-6-255-1-168 2-238 15-295 22-104 43-165 63-183 35-31 119-65 174-72l56-6-4 65c-2 36 0 66 5 66s11 11 15 24c3 13 24 43 46 66l41 43-20 51c-25 64-47 158-62 261-14 97-15 291-1 325l10 25 5-25c15-70 27-156 37-260 11-113 38-259 59-312 12-32 31-36 38-9 3 12 11 17 22 14 9-2 27 4 39 14 18 15 24 39 37 138 20 159 20 156-8 146-28-11-150-11-167-1-9 6-9 13 2 29 12 20 20 22 73 18 33-2 72-7 86-11 49-11 43 20-15 81-30 31-60 68-67 82-8 14-41 54-74 87-99 101-114 121-103 132 8 8 7 25-2 56-7 24-9 49-5 55 9 15 38 14 61-4 10-8 27-15 37-15 9 0 17-5 17-11s5-9 12-7c14 5 58-38 58-57 0-20 21-30 31-14 6 11 9 9 9-8 0-29 10-54 20-48 4 2 15-13 25-35s24-40 32-40c7 0 16-7 19-15 4-8 10-12 15-9s9-5 9-18c1-13 12-32 27-43 14-11 35-31 47-45 11-13 45-50 74-82l54-57 88 92 88 92 8 70c6 54 9 64 15 45 4-14 7-41 8-60l1-34 110 109c60 61 110 115 110 121 0 7 8 14 18 18 24 8 56 29 65 44 11 17 86 16 93-3 3-8-5-29-18-47-12-18-22-34-20-35 9-10-3-24-34-43-19-12-33-24-30-27 2-3-22-30-54-61l-59-56 38-22c52-32 89-90 113-176 16-60 19-92 14-183-5-108-27-217-47-242-8-9-7-17 5-28 12-12 16-13 17-3 0 7 5 1 11-14 5-16 16-28 24-28s14-4 14-9 9-11 21-14 18-10 15-16c-7-10 32-37 47-33 5 1 6-2 3-7-4-5 1-14 10-19 15-9 16-15 4-56-7-26-17-49-21-52-5-3-10-15-10-27-1-14-3-16-6-7-3 14-12 14-61 6-47-7-63-6-87 7-17 9-38 19-47 23-10 3-18 10-18 14 0 5-13 11-30 15-16 4-30 10-30 15s-8 11-18 14c-14 5-17 14-14 34 4 32-36 82-66 82-10 0-37 13-60 30-39 28-41 28-47 10-17-55-55 19-55 108 0 58-1 60-51 107l-51 48-63-64c-35-35-61-67-59-71 3-5 1-8-5-8-9 0-45-34-79-75-7-8-10-20-7-25 3-6 1-10-5-10s-9-4-6-9-1-14-9-21c-7-6-11-18-8-26s1-14-5-14c-11 0-40-23-99-79-20-19-55-40-77-46l-41-13 55-5c30-4 62-6 70-6s33-4 54-10c22-5 43-8 47-5 4 2 20-1 35-6 36-14 296-40 409-41 78-1 85-2 55-11-42-12-499-4-610 11-67 9-198 24-419 49l-74 9 6-76c4-42 11-101 18-131 11-55 12-56 64-77 78-32 155-49 295-67 173-21 469-44 660-52 36-2 117-7 180-12 115-9 666-8 770 2 30 2 88 12 128 21l72 17v109c0 103-1 109-21 109-11 0-18 4-15 9 3 4-18 4-47-2-48-9-215-5-332 8-27 3-128 9-223 14-183 8-228 20-153 41 50 13 452 12 523-2 54-11 77-2 151 59 77 64 94 94 107 191 6 48 16 110 22 137 13 62 20 481 9 569-4 39-4 63 2 59 5-3 7 3 4 13-3 11-8 40-11 65-10 77-45 202-64 228-10 13-34 30-55 37-44 15-231 34-342 34-44 0-116 4-160 10-99 12-894 19-1110 10zm-330-168c12-137 13-153 8-149-10 11-33 116-38 181-6 64-5 69 9 53 8-11 17-49 21-85zm2036-801c-13-100-95-311-121-311-9 0 1 45 18 77 21 39 81 229 94 298 16 91 24 43 9-64zm-81-90c-12-49-73-176-96-200-30-32-21-1 26 94 27 55 55 123 62 150 9 37 13 44 16 26 2-13-1-44-8-70zm-109-142c-24-52-76-117-87-106-9 9 10 46 41 79 12 14 31 40 41 59 24 48 29 21 5-32zm-1711-246c26-33 22-87-7-109-51-39-133 1-135 65-1 46 26 71 78 71 35 0 47-5 64-27zm305-38c18-17 25-35 25-63 0-46-20-67-71-77-75-14-132 92-79 145 29 29 94 27 125-5zm477-61c15-25 16-37 7-61-11-33-31-43-92-43-70 0-121 77-81 121 13 14 30 18 82 16 62-2 67-4 84-33z"/><path d="M924 1595c-8-21 2-45 19-45 21 0 38 25 31 44-8 20-43 21-50 1zM1231 1542c-12-23 4-52 29-52 26 0 45 36 29 56-16 19-46 18-58-4zM1690 1512c-28-23-19-42 18-42 41 0 59 15 46 37-16 25-37 27-64 5zM2980 2912c0-6 7-44 15-84 9-40 17-137 19-216 3-116 7-146 20-161 64-71 435-166 623-159 86 3 104 6 136 28l37 25v133c0 96-3 131-11 126-6-4-28-11-48-16s-45-11-56-14c-38-11-240-7-292 5-28 7-60 21-72 32s-39 26-61 34c-91 32-215 135-278 230-18 27-32 43-32 37zM1837 2512c-67-81-74-98-83-196l-7-76 74-73c111-108 162-148 171-134 5 8 8 5 8-8 1-36 41 52 50 112 5 30 12 108 15 172 5 108 4 119-17 156-25 42-112 115-139 115-9 0-42-31-72-68zM1369 2383c-1-4-3-30-5-56-2-27-7-54-12-60-5-7-12-30-15-51l-6-39 66 66 67 67-30 31c-32 34-63 54-65 42z"/></g></svg>